<svg id="Слой_1" data-name="Слой 1" xmlns="http://www.w3.org/2000/svg" viewBox="0 0 150 190"><defs><style>.cls-1{fill-rule:evenodd;}</style></defs><title>Монтажная область 17</title><path class="cls-1" d="M117.26,147.48H45.08s-3.62-2.66-8-6-5.61-8.37-3.1-14c2.84-6.38,5.81-12.9,5.81-12.9L77.91,65.59c3.53-4.54,7.13-6.05,11.51-2.72,4.77,3.63,8.4,6.3,13.24,10,4.52,3.44,5.61,6.65,4.43,10.42-1.34,4.27-2.75,8.72-2.75,8.72L65.25,142c9.5-.07,24.36-.2,26.72-.2C112,141.82,115.46,144.64,117.26,147.48ZM75.18,118.81,98.52,90.65l-16-11.75L59.49,108Z"/></svg>