<svg id="Слой_1" data-name="Слой 1" xmlns="http://www.w3.org/2000/svg" viewBox="0 0 150 190"><defs><style>.cls-1{fill-rule:evenodd;}</style></defs><title>Монтажная область 41</title><path class="cls-1" d="M29.46,147.8s-.88-35.31-1-42.06c-.19-8,3.79-9.86,10.78-10.93,3.33-.51,10.34-1.55,17.3-2.58L59,83.49c7.13-4.55,25.89-4,33.34-.49l3.1,9.72c7.76,1.24,15.52,2.45,18.74,2.92,4.15.59,7.52,3.59,7.43,10.15-.09,6.88-.62,41.27-.62,41.27Zm13-37.76c-5.08,0-5.32,7.72.08,7.72C47.48,117.76,47.51,110,42.46,110ZM76,99.92c-26.11,0-27.37,39.74.44,39.74C101.79,139.66,102,99.92,76,99.92ZM35,86.69l12.34-.13,1.12,4.74L34,91.92Z"/></svg>