<svg id="Слой_1" data-name="Слой 1" xmlns="http://www.w3.org/2000/svg" viewBox="0 0 150 190"><defs><style>.cls-1{fill-rule:evenodd;}</style></defs><title>Монтажная область 3</title><path class="cls-1" d="M131.83,36.89,114.69,47.4l4.15,14.19-16.1-7.81-9.89,5.84,2.09-10.95L85.6,47l9.28-8.25-3.62-11.1,10.35,6.12,14.22-13.08-4.51,15.39ZM76.7,81.53l-1,11.14c2.91,2.23,2.35,7.3-.82,8.94L74,111.29c2.94,2.44,2.38,7.67-.87,9.51l-1,10.54a6.29,6.29,0,0,1-1.32,9.59,12.14,12.14,0,0,0,2,3.67l-1.06,3.31-10.06-1.4-.63-2.86A13.88,13.88,0,0,0,63.86,140a6.1,6.1,0,0,1,1.07-9.49L66.36,120a5.89,5.89,0,0,1,1.28-9.45L69,100.92a5.39,5.39,0,0,1,1.2-8.86l1.49-11c-3.34-2.15-2.5-7.57,1.19-8.79L75.72,51l3.72.46L77.48,73C80.37,75.07,79.82,80,76.7,81.53ZM70.62,35.29l-5.81-7.77-7,4,2.54-7.38-5-8.56,8.55,2.69L66.7,8.71l2.82,10.12,6.64,3.58-7.29,2.42Zm-13.19,13,9.69,3.36L56.73,54.4l1.71,10.32L51.71,58,41,65.65l2.93-12.17L32.25,46.61l14.44-.27L44,35.87l8,9,7.51-4.1Z"/></svg>