<svg id="Слой_1" data-name="Слой 1" xmlns="http://www.w3.org/2000/svg" viewBox="0 0 150 190"><defs><style>.cls-1{fill-rule:evenodd;}</style></defs><title>Монтажная область 21</title><path class="cls-1" d="M92.12,99.87v12.07l-7.43.42V85.07c0-11.92,7.76-17.34,15.09-17.34,7.65,0,15.31,5.8,15.31,15.86C115.09,99.33,98.61,99.87,92.12,99.87Zm7.57-24.44c-3.64,0-7.53,2.53-7.53,9.62v7.23c15.15,0,15.15-5.43,15.15-8.68C107.31,78,103.36,75.43,99.69,75.43ZM58.24,99.88c-6.58,0-23.33,0-23.33-16,0-10.23,7.78-16.12,15.55-16.12,7.45,0,15.34,5.51,15.34,17.62v7l14.71.11-.69,7.45Zm0-14.53c0-7.33-4-9.94-7.78-9.94s-7.87,2.64-7.87,8.44c0,3.36,0,8.43,15.65,8.47Zm0,30.94V104.9l7.56-1v27c0,12.1-7.89,17.62-15.34,17.62-7.77,0-15.55-5.9-15.55-16.12C34.91,116.34,51.66,116.29,58.24,116.29Zm-7.78,24.48c3.77,0,7.78-2.61,7.78-9.94v-7c-15.65.05-15.65,5.12-15.65,8.48C42.59,138.13,46.67,140.77,50.46,140.77Zm63.14-9c0,9.55-7.26,15-14.52,15-7,0-14.32-5.14-14.32-16.45v-6.52H70.45l-.49-7.6H91.82C98,116.29,113.6,116.88,113.6,131.8Zm-21.47-1.34c0,6.55,3.59,8.89,7,8.89s7-2.36,7-7.55c0-3,0-7.53-14-7.57Z"/></svg>