<svg id="Слой_1" data-name="Слой 1" xmlns="http://www.w3.org/2000/svg" viewBox="0 0 150 190"><defs><style>.cls-1{fill-rule:evenodd;}</style></defs><title>Монтажная область 7</title><path class="cls-1" d="M89.25,99,66.35,94.5c.81-12.84,2.91-26.32,5.68-32.86,4-9.49,22.2-6.6,22.49,5.33C94.69,74.11,92.57,86.84,89.25,99Zm-7.12,20.21-15.5-2A99.79,99.79,0,0,1,66,102.05l21.12,4.13A109.48,109.48,0,0,1,82.13,119.22Zm-1.42,6.71c8.32,11.41.55,25.47-14.41,27,1.39-10.46-7-8.62-6.56-19.57.09-2.45,3.81-7.46,6.81-9.21Z"/></svg>