<svg id="Слой_1" data-name="Слой 1" xmlns="http://www.w3.org/2000/svg" viewBox="0 0 150 190"><defs><style>.cls-1{fill-rule:evenodd;}</style></defs><title>Монтажная область 7</title><path class="cls-1" d="M99.73,100.24c-7.32.07-40.54.45-48.53.54-18.51.19-23-18.72-11.4-27C38.73,66.14,45,57.52,53.65,58.94c7.28-15.35,31.68-15.43,39.25-.66,7.87-1.65,17,5.38,15.54,14.09C121.58,79.48,118.84,100,99.73,100.24Zm-24,26.34C38.92,127,36.75,112,64.86,108.86c0-1.13.08-2.29.08-3.5l18.82,1a47.45,47.45,0,0,0,1.94,12.94,25.75,25.75,0,0,0,7.57-2.52l-3.34-7.44C112,113.16,107.05,126.25,75.7,126.58Zm-12.06-6.83q.54-2.64.86-5.72C54.13,115.36,53.5,118.49,63.64,119.75Zm-21,20.49h4.64c.74-2.64,3.09-4.59,8.43-4.59h.13A18.89,18.89,0,0,0,59.59,131c6.64,1.13,23.91,1.36,30.87-.47a22.83,22.83,0,0,0,4,5.13h.41c4.61,0,6.61,1.88,7.23,4.59h6.21c5.91,0,8.13,3.28,8.13,6.77H35.16C35.16,145,36.54,140.24,42.62,140.24Z"/></svg>