<svg id="Слой_1" data-name="Слой 1" xmlns="http://www.w3.org/2000/svg" viewBox="0 0 150 190"><defs><style>.cls-1{fill-rule:evenodd;}</style></defs><title>Монтажная область 1</title><path class="cls-1" d="M111.35,47.83c-4.24,3.61-5.23,16.28-5.23,16.28h-3s.23-10.39-4.87-15.55-14.24-5.91-14.24-5.91l.3-3.16s10.57-1.25,14.07-4.79C103.25,29.83,103,21,103,21l3-.25s.54,10,4.7,14.19,14.85,4.56,14.85,4.56l.14,3.34S116.57,43.38,111.35,47.83ZM85.63,57.29C84.7,63.48,75.18,140,74.37,146.63s-15.77,5.22-14.94-1.81S68.81,64.15,69.74,56.1,86.55,51.1,85.63,57.29ZM66.49,127.52l-1.94,16.61,5,.54,2-16.43Zm8.19-70-2,16.8,5.36.54,2-16.62ZM71,29.07C68.53,31.2,68,38.66,68,38.66H66.2s0-6.18-3-9.22S54.93,26,54.93,26l.18-1.87s6.35-.67,8.41-2.75c2.85-2.87,2.56-8.16,2.56-8.16l1.78-.15s.39,5.84,2.84,8.29,8.69,2.76,8.69,2.76l.08,2S74.11,26.45,71,29.07ZM62.28,43.76l.09,2s-5.36.34-8.44,3c-2.5,2.12-3.09,9.58-3.09,9.58H49.1s0-6.17-3-9.21-8.29-3.42-8.29-3.42L38,43.78s6.35-.68,8.42-2.76C49.26,38.15,49,32.87,49,32.87l1.78-.15s.28,5.94,2.73,8.39S62.28,43.76,62.28,43.76Z"/></svg>