<svg id="Слой_1" data-name="Слой 1" xmlns="http://www.w3.org/2000/svg" viewBox="0 0 150 190"><defs><style>.cls-1{fill-rule:evenodd;}</style></defs><title>Монтажная область 34</title><path class="cls-1" d="M41.43,147.32l1.72-79.09,49.78-1.77,15.64,13.68-1.32,66.34Zm39.23-11c1.58-1.23,7.84-7.45,7.84-7.45l-6.11-1L80.65,116s-6.76,3.15-12.64,1.34c.09.67.23,2.72.26,3.46C52.4,129.57,61.22,138.2,80.66,136.29Zm-1.35-38.1c-.07-5.08-2.2-7.71-7.21-7.72-6.46,0-6.9,5.75-6.89,8.14a39.69,39.69,0,0,0,.22,4.85c0,6.28,2.5,7.26,3.27,8.06a3.68,3.68,0,0,0,3.14,2c2.61,0,3-1.14,3.36-1.52.57-.6,2.89-1.68,2.88-4,0-4.13,1.39-4,1.45-5C79.6,101.68,79.34,100.23,79.31,98.19Zm9-13.1-.54-12.87L48,73.91l-1,60c3.08-6.42,9.2-10.93,13.45-16.39-2.42-5.34-2.65-15.22-1.13-17.24A6.89,6.89,0,0,1,58.79,97c0-1.49,2.1-3.83,2.61-5.34a12.57,12.57,0,0,1,11.75-7.74c13.24-.2,15.11,7.8,16,14.12.76,5.19,1.48,9.85,2,12.9.54,2.89.9,10.74,4.57,14.41a51.56,51.56,0,0,0,5.3,4l.67.95,1-45Z"/></svg>